<?xml version="1.0" encoding="UTF-8" standalone="no"?>
<!DOCTYPE svg PUBLIC "-//W3C//DTD SVG 1.1//EN" "http://www.w3.org/Graphics/SVG/1.1/DTD/svg11.dtd">
<svg width="100%" height="100%" viewBox="0 0 24 24" version="1.1" xmlns="http://www.w3.org/2000/svg" xmlns:xlink="http://www.w3.org/1999/xlink" xml:space="preserve" xmlns:serif="http://www.serif.com/" style="fill-rule:evenodd;clip-rule:evenodd;stroke-linecap:round;">
    <g id="r01-El" transform="matrix(1.15292,0,0,1.16364,-219.496,-71.1979)">
        <path id="path4489-1" d="M198.044,64.441C193.255,65.863 192.95,69.586 193.653,73.267C194.108,75.651 195.187,78.517 192.55,80.092C198.452,78.121 204.943,82.077 208.922,73.34C209.495,72.082 207.615,70.363 207.372,72.235C206.646,77.809 197.725,79.826 196.159,77.526C194.361,74.887 193.72,66.117 198.357,65.874C199.807,65.799 199.054,64.141 198.044,64.441Z" style="fill-rule:nonzero;"/>
        <path id="path4491-7" d="M205.318,62.904C201.933,64.07 199.645,69.866 200.05,72.279" style="fill:none;stroke:black;stroke-width:1px;"/>
        <path id="path4493-4" d="M208.309,64.913C205.326,66.013 202.774,67.997 202.148,73.931" style="fill:none;stroke:black;stroke-width:1px;"/>
        <g id="path4301-0" transform="matrix(0.995615,0.093544,-0.093544,0.995615,-25.4542,-19.8377)">
            <path d="M234.866,74.343C234.866,74.345 234.866,74.347 234.866,74.349C234.866,74.998 234.151,75.532 233.281,75.532C232.412,75.532 231.696,74.998 231.696,74.349C231.696,73.7 232.412,73.166 233.281,73.166C234.143,73.166 234.855,73.691 234.866,74.334" style="fill-rule:nonzero;"/>
        </g>
    </g>
</svg>
