<?xml version="1.0" encoding="UTF-8" standalone="no"?>
<!DOCTYPE svg PUBLIC "-//W3C//DTD SVG 1.1//EN" "http://www.w3.org/Graphics/SVG/1.1/DTD/svg11.dtd">
<svg width="100%" height="100%" viewBox="0 0 24 24" version="1.1" xmlns="http://www.w3.org/2000/svg" xmlns:xlink="http://www.w3.org/1999/xlink" xml:space="preserve" xmlns:serif="http://www.serif.com/" style="fill-rule:evenodd;clip-rule:evenodd;stroke-linecap:round;">
    <g transform="matrix(1,0,0,1,0,-24)">
        <g id="r02-Eld" transform="matrix(1.27365,0,0,1.27365,-235.402,-123.469)">
            <path id="path4330" d="M194.458,133.058C196.165,130.517 191.887,130.775 190.007,131.89C190.438,130.273 191.996,128.488 193.195,127.597" style="fill:none;stroke:black;stroke-width:1.1px;"/>
            <path id="path4332" d="M199.705,128.964C199.538,129.493 198.876,129.986 198.575,130.196C197.472,130.034 193.437,128.797 192.879,126.65C192.335,124.555 193.001,121.451 195.278,119.768C196.082,120.379 198.012,122.532 198.94,119.768C199.584,117.853 197.756,116.265 197.046,118.316C196.665,119.416 197.235,120.021 197.235,120.021L197.971,120.359L198.139,118.538L197.782,118.236L197.432,119.062" style="fill:none;stroke:black;stroke-width:1.1px;"/>
            <path id="path4334" d="M197.867,124.693C195.224,123.671 192.105,122.318 189.634,125.881C189.733,124.549 189.45,123.261 188.751,122.782" style="fill:none;stroke:black;stroke-width:1.1px;"/>
        </g>
    </g>
</svg>
