<?xml version="1.0" encoding="UTF-8" standalone="no"?>
<!DOCTYPE svg PUBLIC "-//W3C//DTD SVG 1.1//EN" "http://www.w3.org/Graphics/SVG/1.1/DTD/svg11.dtd">
<svg width="100%" height="100%" viewBox="0 0 24 24" version="1.1" xmlns="http://www.w3.org/2000/svg" xmlns:xlink="http://www.w3.org/1999/xlink" xml:space="preserve" xmlns:serif="http://www.serif.com/" style="fill-rule:evenodd;clip-rule:evenodd;stroke-linejoin:round;stroke-miterlimit:1.41421;">
    <g transform="matrix(1,0,0,1,0,-96)">
        <g id="r02-Eth" transform="matrix(1.08037,0,0,1.07027,-206.904,-208.988)">
            <g id="path3924" transform="matrix(1,0,0,1,5.55364,0)">
                <path d="M192.298,290.872C192.343,289.42 192.935,287.951 193.529,286.832C194.596,288.686 198.887,287.024 199.244,291.275C199.374,292.832 198.621,295.861 192.802,296.587C193.067,300.019 196.835,300.079 195.87,302.934C193.162,299.583 189.558,302.915 192.424,305.519C187.678,303.946 191.262,299.225 194.342,300.625C192.815,299.61 191.465,297.344 191.273,295.203C203.402,294.902 196.736,285.119 192.298,290.872Z" style="fill-rule:nonzero;"/>
            </g>
            <g id="path3926" transform="matrix(1,0,0,1,5.55364,0)">
                <path d="M195.883,292.222C203.003,291.669 206.127,299.893 197.981,303.874C202.839,299.617 203.878,295.093 195.883,292.222Z" style="fill-rule:nonzero;"/>
            </g>
            <g id="path3928" transform="matrix(1,0,0,1,5.55364,0)">
                <path d="M204.007,290.035C201.733,292.136 201.939,302.043 202.936,303.427C203.125,300.768 203.426,292.646 204.007,290.035Z" style="fill-rule:nonzero;"/>
            </g>
        </g>
    </g>
</svg>
