<?xml version="1.0" encoding="UTF-8" standalone="no"?>
<!DOCTYPE svg PUBLIC "-//W3C//DTD SVG 1.1//EN" "http://www.w3.org/Graphics/SVG/1.1/DTD/svg11.dtd">
<svg width="100%" height="100%" viewBox="0 0 24 24" version="1.1" xmlns="http://www.w3.org/2000/svg" xmlns:xlink="http://www.w3.org/1999/xlink" xml:space="preserve" xmlns:serif="http://www.serif.com/" style="fill-rule:evenodd;clip-rule:evenodd;stroke-linejoin:round;stroke-miterlimit:1.41421;">
    <g transform="matrix(1,0,0,1,0,-48)">
        <g id="r03-Tir" transform="matrix(1.10446,0,0,1.08862,-222.078,-140.242)">
            <g id="path3916" transform="matrix(1,0,0,1,5.43254,0)">
                <path d="M200.967,179.629C199.775,181.617 198.075,190.051 200.4,189.453C204.873,188.302 207.169,180.657 207.006,180.629C207.006,180.629 208.859,190.402 211.607,189.525C214.379,188.64 213.915,182.613 213.107,180.996C211.826,183.158 210.567,184.961 209.286,186.112L209.353,187.094C210.491,186.047 211.8,184.741 212.776,183.043C212.776,183.043 213.193,187.184 211.586,187.719C209.978,188.255 207.237,174.756 207.237,174.756C206.796,178.066 205.365,182.163 203.907,184.505C203.056,183.144 201.61,180.64 200.967,179.629L200.967,179.629Z" style="fill-rule:nonzero;"/>
            </g>
            <g id="path3918" transform="matrix(1,0,0,1,5.43254,0)">
                <path d="M200.991,188.188C201.302,190.858 202.192,191.858 203.265,191.993C204.619,192.164 205.914,190.826 205.723,189.126C204.875,189.054 204.027,189.138 203.179,189.304C204.744,187.727 206.014,185.627 206.884,183.902C207.228,186.094 208.151,188.063 209.206,189.84C208.417,189.522 207.628,189.24 206.84,189.215C207.046,191.35 205.226,193.208 203.267,193.125C201.729,193.06 200.408,191.964 200.098,188.992L200.991,188.188Z" style="fill-rule:nonzero;"/>
            </g>
        </g>
    </g>
</svg>
