<?xml version="1.0" encoding="UTF-8" standalone="no"?>
<!DOCTYPE svg PUBLIC "-//W3C//DTD SVG 1.1//EN" "http://www.w3.org/Graphics/SVG/1.1/DTD/svg11.dtd">
<svg width="100%" height="100%" viewBox="0 0 24 24" version="1.1" xmlns="http://www.w3.org/2000/svg" xmlns:xlink="http://www.w3.org/1999/xlink" xml:space="preserve" xmlns:serif="http://www.serif.com/" style="fill-rule:evenodd;clip-rule:evenodd;stroke-linejoin:round;stroke-miterlimit:1.41421;">
    <g transform="matrix(1,0,0,1,0,-120)">
        <g id="r06-Ith" transform="matrix(1.0443,0,0,1.05522,-122.091,-219.883)">
            <g id="path4160" transform="matrix(1,0,0,1,-60.9844,-34.4303)">
                <path d="M186.364,358.423C185.265,360.306 185.128,362.39 186.869,363.852C185.308,366.949 183.068,369.844 180.769,372.583C185.973,372.775 185.918,374.506 180.86,377.376C187.77,375.769 187.71,371.735 182.856,371.526C184.806,369.148 186.555,366.595 187.91,363.978C188.406,364.003 188.863,363.911 189.299,363.757C187.008,362.996 186.1,361.145 186.364,358.423L186.364,358.423Z" style="fill-rule:nonzero;"/>
            </g>
            <g id="path4160-4" transform="matrix(1,0,0,1,-60.9844,-34.4303)">
                <path d="M194.196,359.215C195.451,361.044 194.945,363.649 193.088,364.533C194.484,367.761 195.574,369.091 198.005,371.723C193.603,373.524 194.068,374.765 195.95,376.561C189.926,375.564 194.326,371.826 196.255,371.463C194.471,369.156 193.101,367.279 192.187,364.718C191.691,364.743 191.245,364.44 190.903,364.192C193.282,363.668 194.294,361.356 194.196,359.215Z" style="fill-rule:nonzero;"/>
            </g>
            <g id="path4198" transform="matrix(1,0,0,1,-60.9844,-34.4303)">
                <path d="M189.41,372.709C188.735,373.232 188.944,373.974 189.834,373.535C191.42,372.754 191.513,370.232 190.147,369.406C188.48,368.399 189.008,366.757 190.006,366.818C190.684,366.86 191.048,365.863 190.108,365.699C188.177,365.362 186.793,368.782 189.432,370.031C190.627,370.596 190.601,371.789 189.41,372.709L189.41,372.709Z" style="fill-rule:nonzero;"/>
            </g>
        </g>
    </g>
</svg>
