<?xml version="1.0" encoding="UTF-8" standalone="no"?>
<!DOCTYPE svg PUBLIC "-//W3C//DTD SVG 1.1//EN" "http://www.w3.org/Graphics/SVG/1.1/DTD/svg11.dtd">
<svg width="100%" height="100%" viewBox="0 0 24 24" version="1.1" xmlns="http://www.w3.org/2000/svg" xmlns:xlink="http://www.w3.org/1999/xlink" xml:space="preserve" xmlns:serif="http://www.serif.com/" style="fill-rule:evenodd;clip-rule:evenodd;stroke-linejoin:round;stroke-miterlimit:1.41421;">
    <g transform="matrix(1,0,0,1,0,-144)">
        <g id="r07-Tal" transform="matrix(1.14623,0,0,1.12258,-219.274,-329.001)">
            <g id="path3998" transform="matrix(1,0,0,1,5.23455,0)">
                <path d="M197.769,425.278C201.46,421.631 204.46,425.789 201.368,429.477C200.401,426.128 199.287,425.467 197.769,425.278Z" style="fill-rule:nonzero;"/>
            </g>
            <g id="path4000" transform="matrix(1,0,0,1,5.23455,0)">
                <path d="M194.464,423.132C192.621,424.581 189.08,429.413 187.81,432.126C190.151,432.276 192.492,432.36 194.833,432.373C195.164,432.375 195.219,432.506 195.223,432.697C195.274,434.726 195.737,437.33 196.341,439.251C198.933,436.74 201.406,434.182 203.408,431.435C201.341,431.245 198.769,430.972 197.159,430.346C195.771,428.475 195.007,425.418 194.464,423.132ZM201.512,432.183C200.307,433.747 198.078,436.299 196.876,437.2C196.517,436.403 196.204,433.979 196.295,432.765C196.325,432.369 197.075,431.499 197.372,431.566C198.637,431.855 201.512,432.183 201.512,432.183Z" style="fill-rule:nonzero;"/>
            </g>
            <g id="path4004" transform="matrix(1,0,0,1,5.23455,0)">
                <path d="M203.988,432.318C201.855,434.87 199.123,438.207 197.264,439.673C196.267,440.459 197.352,441.322 197.958,440.778C200.329,438.651 202.83,435.598 205.124,432.57C205.51,432.061 205.044,431.054 203.988,432.318Z" style="fill-rule:nonzero;"/>
            </g>
        </g>
    </g>
</svg>
