<?xml version="1.0" encoding="UTF-8" standalone="no"?>
<!DOCTYPE svg PUBLIC "-//W3C//DTD SVG 1.1//EN" "http://www.w3.org/Graphics/SVG/1.1/DTD/svg11.dtd">
<svg width="100%" height="100%" viewBox="0 0 24 24" version="1.1" xmlns="http://www.w3.org/2000/svg" xmlns:xlink="http://www.w3.org/1999/xlink" xml:space="preserve" xmlns:serif="http://www.serif.com/" style="fill-rule:evenodd;clip-rule:evenodd;stroke-linejoin:round;stroke-miterlimit:1.41421;">
    <g transform="matrix(1,0,0,1,0,-168)">
        <g id="r08-Ral" transform="matrix(1.09402,0,0,1.14566,-130.189,-342.356)">
            <g id="path4828" transform="matrix(1,0,0,1,-61.2456,-34.4303)">
                <path d="M195.187,481.645C193.653,485.983 198.115,486.793 198.07,491.052C198.044,493.602 196.452,495.968 195.347,496.899C194.246,497.827 192.781,496.38 194.454,495.248C195.509,494.534 196.597,492.568 196.597,490.962C196.597,486.596 191.365,486.299 195.187,481.645Z" style="fill-rule:nonzero;"/>
            </g>
            <g id="path4830" transform="matrix(1,0,0,1,-61.2456,-34.4303)">
                <path d="M191.982,491.946C190.977,492.948 192.269,495.153 193.624,493.65C195.651,491.4 194.455,487.382 192.591,486.167C192.85,487.876 193.327,490.605 191.982,491.946Z" style="fill-rule:nonzero;"/>
            </g>
            <g id="path4117" transform="matrix(1,0,0,1,-61.2456,-34.4303)">
                <path d="M185.985,486.422C185.743,488.352 186.076,491.199 187.366,492.246C186.617,492.329 185.897,492.355 185.327,492.081C184.859,497.028 190.09,497.265 190.678,494.35C190.897,495.049 191.512,495.65 192.43,495.631C188.763,498.054 186.517,497.477 185.083,495.533C183.676,493.627 184.594,488.553 185.985,486.422Z" style="fill-rule:nonzero;"/>
            </g>
            <g id="path4119" transform="matrix(1,0,0,1,-61.2456,-34.4303)">
                <path d="M188.92,494.124C186.367,493.803 184.606,497.736 184.367,498.764C184.296,499.069 184.753,499.245 184.872,498.95C185.276,497.951 186.609,495.361 188.92,494.124Z" style="fill-rule:nonzero;"/>
            </g>
        </g>
    </g>
</svg>
