<?xml version="1.0" encoding="UTF-8" standalone="no"?>
<!DOCTYPE svg PUBLIC "-//W3C//DTD SVG 1.1//EN" "http://www.w3.org/Graphics/SVG/1.1/DTD/svg11.dtd">
<svg width="100%" height="100%" viewBox="0 0 24 24" version="1.1" xmlns="http://www.w3.org/2000/svg" xmlns:xlink="http://www.w3.org/1999/xlink" xml:space="preserve" xmlns:serif="http://www.serif.com/" style="fill-rule:evenodd;clip-rule:evenodd;stroke-linejoin:round;stroke-miterlimit:1.41421;">
    <g transform="matrix(1,0,0,1,0,-192)">
        <g id="r09-Ort" transform="matrix(1.30067,0,0,1.32368,-220.804,-519.712)">
            <g id="path4100" transform="matrix(1,0,0,1,4.61302,0)">
                <path d="M174.469,539.188C173.749,542.779 170.276,545.743 170.224,549.05C170.115,556.015 178.486,556.004 178.513,549.268C178.525,546.429 175.13,542.684 174.469,539.188L174.469,539.188ZM174.424,542.513C174.895,544.156 177.15,547.056 177.031,549.161C176.827,552.766 172.175,553.102 172.081,549.08C172.02,546.469 174.144,544.13 174.424,542.513Z" style="fill-rule:nonzero;"/>
            </g>
            <g id="path4108-7" transform="matrix(1,0,0,1,4.61302,0)">
                <path d="M169.389,539.891C171.465,539.806 173.098,543.586 169.371,543.688C169.704,544.418 170.55,545.657 171.86,544.987L170.625,548.034C170.334,546.356 168.764,545.127 168.524,543.672C167.323,543.601 166.589,540.006 169.389,539.891L169.389,539.891ZM169.473,540.874C168.223,540.874 168.046,542.877 169.541,542.807C171.018,542.738 170.451,540.874 169.473,540.874Z" style="fill-rule:nonzero;"/>
            </g>
            <g id="path4153" transform="matrix(1,0,0,1,4.61302,0)">
                <path d="M179.393,540.062C177.317,539.977 175.684,543.757 179.411,543.858C179.078,544.589 178.231,545.828 176.922,545.157L178.157,548.204C178.448,546.526 180.202,545.089 180.395,543.792C181.33,543.3 182.193,540.176 179.393,540.062L179.393,540.062ZM179.308,541.044C180.558,541.044 180.736,543.048 179.241,542.977C177.764,542.908 178.331,541.044 179.308,541.044Z" style="fill-rule:nonzero;"/>
            </g>
        </g>
    </g>
</svg>
