<?xml version="1.0" encoding="UTF-8" standalone="no"?>
<!DOCTYPE svg PUBLIC "-//W3C//DTD SVG 1.1//EN" "http://www.w3.org/Graphics/SVG/1.1/DTD/svg11.dtd">
<svg width="100%" height="100%" viewBox="0 0 24 24" version="1.1" xmlns="http://www.w3.org/2000/svg" xmlns:xlink="http://www.w3.org/1999/xlink" xml:space="preserve" xmlns:serif="http://www.serif.com/" style="fill-rule:evenodd;clip-rule:evenodd;stroke-linejoin:round;stroke-miterlimit:1.41421;">
    <g transform="matrix(1,0,0,1,0,-216)">
        <g id="r10-Thul" transform="matrix(1.06294,0,0,1.08443,-216.334,-435.047)">
            <g>
                <g id="path4120" transform="matrix(1,0,0,1,5.6447,0)">
                    <path d="M213.683,617.313C212.02,617.973 209.803,619.751 206.439,620.647C206.996,616.687 210.273,611.178 208.58,609.278C209.199,608.34 210.386,607.744 211.474,607.318C211.428,608.67 210.523,608.955 210.486,610.05C210.381,613.09 208.708,616.108 208.173,618.678C209.983,618.148 211.401,616.779 212.973,616.132C213.292,613.349 215.285,611.966 216.411,614.996C217.57,618.113 214.868,617.5 213.683,617.313Z" style="fill-rule:nonzero;"/>
                </g>
                <g id="path4122" transform="matrix(1,0,0,1,5.6447,0)">
                    <path d="M205.019,604.982C206.5,608.617 202.792,612.808 201.641,616.567C208.646,615.925 210.949,611.835 213.968,609.685C216.062,610.011 216.634,608.874 215.682,607.486C214.416,605.639 213.348,606.434 213.479,608.549C211.21,609.806 208.712,613.701 203.694,614.917C204.688,612.596 206.6,609.597 206.662,605.765C206.688,604.154 208.294,604.212 208.523,602.204C207.215,602.838 205.898,603.586 205.019,604.982Z" style="fill-rule:nonzero;"/>
                </g>
            </g>
        </g>
    </g>
</svg>
