<?xml version="1.0" encoding="UTF-8" standalone="no"?>
<!DOCTYPE svg PUBLIC "-//W3C//DTD SVG 1.1//EN" "http://www.w3.org/Graphics/SVG/1.1/DTD/svg11.dtd">
<svg width="100%" height="100%" viewBox="0 0 24 24" version="1.1" xmlns="http://www.w3.org/2000/svg" xmlns:xlink="http://www.w3.org/1999/xlink" xml:space="preserve" xmlns:serif="http://www.serif.com/" style="fill-rule:evenodd;clip-rule:evenodd;stroke-linejoin:round;stroke-miterlimit:1.41421;">
    <g transform="matrix(1,0,0,1,0,-240)">
        <g id="r11-Amn" transform="matrix(1.05406,0,0,1.05406,-187.693,-451.403)">
            <g id="path3990" transform="matrix(1,0,0,1,5.69225,0)">
                <path d="M177.534,666.61C174.507,668.766 172.791,677.038 183.469,676.806C194.769,676.562 192.338,668.918 191.392,668.094C190.047,666.922 189.556,668.162 190.477,669.009C191.465,669.918 191.838,675.364 183.501,675.733C178.775,675.942 174.342,672.155 178.229,667.62C179.397,666.258 178.593,665.856 177.534,666.61Z" style="fill-rule:nonzero;"/>
            </g>
            <g id="path3992" transform="matrix(1,0,0,1,5.69225,0)">
                <path d="M184.554,667.63C187.143,670.647 182.895,670.894 183.884,674.728C180.55,670.955 185.641,671.005 183.571,668.657C182.271,667.181 181.076,665.54 184.018,663.568C185.551,662.539 185.295,661.226 185.045,660.532C184.616,659.343 181.016,659.082 181.92,660.576C182.463,661.475 181.794,663.013 180.67,661.826C177.677,658.666 183.12,656.038 186.205,659.416C187.109,660.406 187.49,663.119 185.268,664.505C183.713,665.475 183.158,666.004 184.554,667.63Z" style="fill-rule:nonzero;"/>
            </g>
        </g>
    </g>
</svg>
