<?xml version="1.0" encoding="UTF-8" standalone="no"?>
<!DOCTYPE svg PUBLIC "-//W3C//DTD SVG 1.1//EN" "http://www.w3.org/Graphics/SVG/1.1/DTD/svg11.dtd">
<svg width="100%" height="100%" viewBox="0 0 24 24" version="1.1" xmlns="http://www.w3.org/2000/svg" xmlns:xlink="http://www.w3.org/1999/xlink" xml:space="preserve" xmlns:serif="http://www.serif.com/" style="fill-rule:evenodd;clip-rule:evenodd;stroke-linejoin:round;stroke-miterlimit:1.41421;">
    <g transform="matrix(1,0,0,1,-24,0)">
        <g id="r12-Sol" transform="matrix(1,0,0,1,2.06678,-0.970919)">
            <g id="path3968" transform="matrix(1.04903,0,0,1.02793,-158.152,-731.356)">
                <path d="M179.866,714.371C177.19,722.07 185.46,724.31 184.107,714.371C190.691,716.823 190.659,726.133 185.848,729.103C182.517,731.16 179.169,729.086 177.589,730.934C177.288,731.286 177.35,731.7 177.432,732.06C178.166,735.268 174.209,733.671 176.205,730.755C178.742,727.049 181.443,730.183 185.313,728.032C188.129,726.466 188.905,720.168 185.67,718.076C185.613,721.087 184.058,724.434 181.384,726.693C177.698,724.737 176.463,717.426 179.866,714.371Z" style="fill-rule:nonzero;"/>
            </g>
            <g id="path3970" transform="matrix(1.04903,0,0,1.02793,-158.478,-731.344)">
                <path d="M187.956,718.171C188.502,717.763 188.937,717.459 189.508,716.605C189.789,718.045 189.403,719.004 188.764,719.725L189.003,720.801C189.506,720.884 190.312,720.827 190.889,720.593C190.399,721.462 189.753,722.215 188.995,722.531L188.825,723.556C189.23,724.316 189.851,724.861 190.733,725.145C189.904,725.547 189.074,725.54 188.245,725.227L187.667,727.03C187.891,727.528 188.387,728.117 189.054,728.338C188.239,728.675 187.365,728.561 186.754,728.141L185.43,729.224C185.306,729.842 185.384,730.247 185.586,730.717C184.624,730.511 184.323,729.839 184.257,729.291L182.607,729.84C182.307,730.347 182.223,730.992 182.34,731.503C181.737,731.2 181.432,730.699 181.361,729.937L179.569,729.979C179.228,730.372 178.966,731.058 178.981,731.57C178.631,731.165 178.511,730.576 178.459,730.111L178.81,729.47C180.304,729.203 181.878,729.335 183.134,729.042C184.39,728.75 185.348,728.34 186.31,727.851L188.267,722.926L187.956,718.171Z" style="fill-rule:nonzero;"/>
            </g>
        </g>
    </g>
</svg>
