<?xml version="1.0" encoding="UTF-8" standalone="no"?>
<!DOCTYPE svg PUBLIC "-//W3C//DTD SVG 1.1//EN" "http://www.w3.org/Graphics/SVG/1.1/DTD/svg11.dtd">
<svg width="100%" height="100%" viewBox="0 0 24 24" version="1.1" xmlns="http://www.w3.org/2000/svg" xmlns:xlink="http://www.w3.org/1999/xlink" xml:space="preserve" xmlns:serif="http://www.serif.com/" style="fill-rule:evenodd;clip-rule:evenodd;stroke-linejoin:round;stroke-miterlimit:1.41421;">
    <g transform="matrix(1,0,0,1,-24,-24)">
        <g id="r13-Shael" transform="matrix(1.1563,0,0,1.12855,-585.436,-41.2317)">
            <path d="M536.616,59.605C536.752,61.952 536.869,64.331 536.746,66.188C536.623,68.051 531.601,71.752 531.522,67.774C531.429,63.124 534.351,64.495 534.49,66.761C536.801,64.311 530.636,58.837 530.106,67.917C529.672,75.374 535.165,71.484 535.647,70.698C536.928,72.754 536.934,75.129 537.175,77.296C537.424,76.339 537.635,74.815 537.709,73.98C539.885,75.474 542.365,72.885 541.834,70.198C540.86,72.541 538.194,73.777 537.928,70.855C537.855,70.06 537.984,68.553 538.145,67.576C542.705,68.402 546.598,65.298 543.892,61.381C544.722,66.53 538.589,66.108 538.615,64.572C538.645,62.863 538.792,61.366 539.112,59.574C538.087,59.604 536.983,59.597 536.616,59.605Z" style="fill-rule:nonzero;"/>
        </g>
    </g>
</svg>
