<?xml version="1.0" encoding="UTF-8" standalone="no"?>
<!DOCTYPE svg PUBLIC "-//W3C//DTD SVG 1.1//EN" "http://www.w3.org/Graphics/SVG/1.1/DTD/svg11.dtd">
<svg width="100%" height="100%" viewBox="0 0 24 24" version="1.1" xmlns="http://www.w3.org/2000/svg" xmlns:xlink="http://www.w3.org/1999/xlink" xml:space="preserve" xmlns:serif="http://www.serif.com/" style="fill-rule:evenodd;clip-rule:evenodd;stroke-linejoin:round;stroke-miterlimit:1.41421;">
    <g transform="matrix(1,0,0,1,-24,-48)">
        <g id="r14-Dol" transform="matrix(1.05197,0,0,1.06773,-524.368,-74.2945)">
            <path id="path4024" d="M530.763,135.141C528.241,133.887 528.108,129.95 529.36,128.317C529.705,131.97 533.683,134.312 538.142,130.447C540.203,128.661 540.904,125.481 538.514,122.468C539.281,122.169 538.758,121.382 540.684,122.618C542.26,123.63 541.524,124.246 541.652,125.576C541.796,127.079 541.037,129.594 539,131.385C537.254,132.919 534.571,133.921 530.712,133.297C530.578,133.761 530.717,134.774 530.763,135.141L530.763,135.141Z" style="fill-rule:nonzero;"/>
            <path id="path4026" d="M525.536,133.568C523.597,132.775 522.964,129.36 524.554,128.21C525.168,127.766 535.902,117.908 536.964,117.139C538.804,115.807 539.857,116.38 538.17,118.21C536.99,119.49 528.592,125.908 526.019,129.63C525.24,130.757 525.358,132.304 525.536,133.568Z" style="fill-rule:nonzero;"/>
            <path id="path4028" d="M532.88,129.612C530.926,129.157 530.929,131.276 532.752,131.23C534.476,131.186 533.769,129.819 532.88,129.612Z" style="fill-rule:nonzero;"/>
            <path id="path4141" d="M529.906,116.688C529.639,116.808 529.719,117.332 530.5,118.531C531.302,119.762 532.592,120.738 532.714,121.67C533.061,124.315 532.994,127.982 532.642,129.568C533.137,129.668 532.332,130.679 532.98,131.155C534.495,129.805 534.374,124.382 535.009,124.12C535.426,123.949 536.322,124.492 537.125,125C538.163,125.657 538.261,124.759 537.937,124.25C536.479,121.955 533.397,118.3 531.344,117.156C530.783,116.844 530.174,116.567 529.906,116.687Z" style="fill-rule:nonzero;"/>
        </g>
    </g>
</svg>
