<?xml version="1.0" encoding="UTF-8" standalone="no"?>
<!DOCTYPE svg PUBLIC "-//W3C//DTD SVG 1.1//EN" "http://www.w3.org/Graphics/SVG/1.1/DTD/svg11.dtd">
<svg width="100%" height="100%" viewBox="0 0 24 24" version="1.1" xmlns="http://www.w3.org/2000/svg" xmlns:xlink="http://www.w3.org/1999/xlink" xml:space="preserve" xmlns:serif="http://www.serif.com/" style="fill-rule:evenodd;clip-rule:evenodd;stroke-linejoin:round;stroke-miterlimit:1.41421;">
    <g transform="matrix(1,0,0,1,-24,-72)">
        <g id="r15-Hel" transform="matrix(1.27879,0,0,1.27879,-567.793,-106.17)">
            <g id="path3979" transform="matrix(1,0,0,1,-66.7299,-34.4303)">
                <path d="M537.719,185.056C537.765,183.005 540.273,183.435 540.359,184.901C540.437,186.213 537.688,186.411 537.719,185.056Z" style="fill:rgb(6,2,2);fill-rule:nonzero;"/>
            </g>
            <g id="path3985" transform="matrix(1,0,0,1,-66.7299,-34.4303)">
                <path d="M532.085,181.581C532.693,175.843 541.708,177.43 541.317,181.089C539.957,178.84 534.363,177.699 533.616,181.789C533.479,182.54 531.86,183.703 532.085,181.581Z" style="fill:rgb(6,2,2);fill-rule:nonzero;"/>
            </g>
            <g id="path3987" transform="matrix(1,0,0,1,-66.7299,-34.4303)">
                <path d="M539.081,177.318C541.779,177.962 544.535,181.719 545.091,181.825C546.079,182.014 547.121,181.296 545.4,180.897C544.396,180.665 542.901,176.638 540.281,175.596C538.085,174.723 537.81,177.014 539.081,177.318Z" style="fill:rgb(6,2,2);fill-rule:nonzero;"/>
            </g>
            <g id="path3989" transform="matrix(1,0,0,1,-66.7299,-34.4303)">
                <path d="M533.375,185.706C533.527,187.153 535.927,187.084 535.25,185.675C534.839,184.819 535.49,182.719 537.688,180.987C535.743,181.839 532.894,183.729 533.375,185.706L533.375,185.706Z" style="fill:rgb(6,2,2);fill-rule:nonzero;"/>
            </g>
            <g id="path3991" transform="matrix(1,0,0,1,-66.7299,-34.4303)">
                <path d="M531.567,184.297C531.133,186.622 532.124,187.39 533.109,188.249C534.114,189.125 535.032,188.093 533.934,187.39C533.199,186.919 532.037,186.121 531.567,184.297Z" style="fill:rgb(6,2,2);fill-rule:nonzero;"/>
            </g>
            <g id="path3993" transform="matrix(1,0,0,1,-66.7299,-34.4303)">
                <path d="M538.91,189.403C539.649,188.918 539.38,187.231 538.127,188.294C536.9,189.333 535.887,189.166 534.081,189.044C535.829,189.937 538.163,189.893 538.91,189.403Z" style="fill:rgb(6,2,2);fill-rule:nonzero;"/>
            </g>
            <g id="path3996" transform="matrix(1,0,0,1,-66.7299,-34.4303)">
                <path d="M541.202,188.278C541.237,187.294 542.306,186.858 542.343,188.375C542.399,190.623 540.623,191.037 538.992,190.841C540.439,190.117 541.221,189.569 541.202,188.278L541.202,188.278Z" style="fill:rgb(6,2,2);fill-rule:nonzero;"/>
            </g>
            <g id="path4002" transform="matrix(1,0,0,1,-66.7299,-34.4303)">
                <path d="M541.798,183.77C540.405,182.623 541.859,180.944 543.102,182.378C543.845,183.235 545.551,185.243 544.958,188.454C544.771,186.149 542.379,184.248 541.798,183.77Z" style="fill:rgb(6,2,2);fill-rule:nonzero;"/>
            </g>
            <g id="path4006" transform="matrix(1,0,0,1,-66.7299,-34.4303)">
                <path d="M542.771,188.322C542.074,187.821 542.319,186.367 543.146,187.129C543.946,187.865 544.218,190.044 544.074,190.62C543.998,190.354 543.998,189.204 542.771,188.322Z" style="fill:rgb(6,2,2);fill-rule:nonzero;"/>
            </g>
        </g>
    </g>
</svg>
