<?xml version="1.0" encoding="UTF-8" standalone="no"?>
<!DOCTYPE svg PUBLIC "-//W3C//DTD SVG 1.1//EN" "http://www.w3.org/Graphics/SVG/1.1/DTD/svg11.dtd">
<svg width="100%" height="100%" viewBox="0 0 24 24" version="1.1" xmlns="http://www.w3.org/2000/svg" xmlns:xlink="http://www.w3.org/1999/xlink" xml:space="preserve" xmlns:serif="http://www.serif.com/" style="fill-rule:evenodd;clip-rule:evenodd;stroke-linejoin:round;stroke-miterlimit:1.41421;">
    <g transform="matrix(1,0,0,1,-24,-96)">
        <g id="r16-Io" transform="matrix(1.21428,0,0,1.19828,-603.478,-188.254)">
            <path id="path4375" d="M530.969,248.878C535.648,246.86 535.099,240.971 532.364,239.248C531.1,238.451 529.204,240.48 531.238,241.446C532.116,241.863 534.217,244.158 530.969,248.878Z" style="fill-rule:nonzero;"/>
            <path id="path4375-9" d="M521.017,240.415C518.189,242.235 518.211,248.339 520.325,250.044C521.488,250.983 523.498,249.384 521.564,248.23C520.729,247.732 519.233,246.323 521.017,240.415Z" style="fill-rule:nonzero;"/>
            <path id="path4375-9-4" d="M522.995,252.463C524.282,250.233 527.101,249.324 529.271,250.776C530.422,251.547 529.32,252.864 528.168,252.003C526.912,251.064 524.602,251.608 522.995,252.463Z" style="fill-rule:nonzero;"/>
            <path id="path4375-9-4-8" d="M529.695,243.02C528.544,245.72 524.758,246.445 522.382,244.54C521.219,243.608 522.822,242.323 523.773,243.53C524.911,244.976 527.384,244.53 529.695,243.02Z" style="fill-rule:nonzero;"/>
            <path id="path4375-9-4-8-8" d="M526.269,255.577C524.945,254.763 524.979,242.722 526.218,239.908C527.146,237.8 528.83,239.323 527.554,241.166C525.749,243.772 526.03,252.295 526.269,255.577Z" style="fill-rule:nonzero;"/>
        </g>
    </g>
</svg>
