<?xml version="1.0" encoding="UTF-8" standalone="no"?>
<!DOCTYPE svg PUBLIC "-//W3C//DTD SVG 1.1//EN" "http://www.w3.org/Graphics/SVG/1.1/DTD/svg11.dtd">
<svg width="100%" height="100%" viewBox="0 0 24 24" version="1.1" xmlns="http://www.w3.org/2000/svg" xmlns:xlink="http://www.w3.org/1999/xlink" xml:space="preserve" xmlns:serif="http://www.serif.com/" style="fill-rule:evenodd;clip-rule:evenodd;stroke-linejoin:round;stroke-miterlimit:1.41421;">
    <g transform="matrix(1,0,0,1,-24,-120)">
        <g id="r17-Lum" transform="matrix(1.12936,0,0,1.15138,-543.177,-226.515)">
            <path d="M509.781,312.777C508.632,305.799 513.989,304.526 516.593,305.967C519.287,307.459 518.117,312.102 515.094,314.875C512.565,317.195 507.74,314.441 506.998,316.065C505.794,318.701 507.592,319.62 508.938,320.063C507.823,319.091 507.051,317.816 507.969,317.031C509.031,316.124 512.512,317.538 515.598,315.617C517.966,314.143 523.199,306.507 517,303.969C505.025,299.065 502.604,309.652 509.781,312.777ZM508.871,307.374C507.896,308.593 506.087,308.478 507.398,306.034C508.041,304.835 509.55,306.524 508.871,307.374Z" style="fill-rule:nonzero;"/>
        </g>
    </g>
</svg>
