<?xml version="1.0" encoding="UTF-8" standalone="no"?>
<!DOCTYPE svg PUBLIC "-//W3C//DTD SVG 1.1//EN" "http://www.w3.org/Graphics/SVG/1.1/DTD/svg11.dtd">
<svg width="100%" height="100%" viewBox="0 0 24 24" version="1.1" xmlns="http://www.w3.org/2000/svg" xmlns:xlink="http://www.w3.org/1999/xlink" xml:space="preserve" xmlns:serif="http://www.serif.com/" style="fill-rule:evenodd;clip-rule:evenodd;stroke-linejoin:round;stroke-miterlimit:1.41421;">
    <g transform="matrix(1,0,0,1,-24,-144)">
        <g id="r18-Ko" transform="matrix(1.02228,0,0,1.0303,-420.546,-186.329)">
            <g id="path4046" transform="matrix(1,0,0,1,-66.7299,-34.4303)">
                <path d="M505.499,368.391C505.517,370.406 506.614,372.946 507.895,373.782C508.551,374.21 509.015,373.917 508.41,373.09C506.517,370.5 507.507,368.987 509.098,368.905C509.807,368.868 509.797,368.131 509.118,368.025C507.69,367.802 507.231,368.196 505.823,367.937C505.591,367.894 505.496,368.131 505.499,368.391L505.499,368.391Z" style="fill:none;stroke:black;stroke-width:0.97px;"/>
            </g>
            <g id="path4046-4" transform="matrix(1,0,0,1,-66.7299,-34.4303)">
                <path d="M505.699,366.093C505.865,364.542 507.324,361.889 507.819,360.966C508.321,360.03 509.428,360.334 508.858,361.502C507.169,364.964 508.208,365.756 509.203,365.881C510.223,366.009 509.951,367.271 509.02,367.072C507.84,366.82 507.103,366.697 506.212,366.898C505.59,367.039 505.647,366.576 505.699,366.093Z" style="fill:none;stroke:black;stroke-width:0.97px;"/>
            </g>
            <g id="path4077" transform="matrix(1,0,0,1,-66.7299,-34.4303)">
                <path d="M512.5,360.112C512.528,361.368 512.25,374.737 512.25,375.55C512.25,376.362 513.128,376.987 513.128,375.487C513.128,373.987 513.577,360.674 513.563,360.3C513.518,359.173 515.495,357.031 513.125,356.987C510.225,356.933 512.478,359.116 512.5,360.112Z" style="fill:none;stroke:black;stroke-width:0.97px;"/>
            </g>
            <g id="path4079" transform="matrix(1,0,0,1,-66.7299,-34.4303)">
                <path d="M518.125,362.604C517.816,363.956 519.142,364.231 519.706,363.878C520.365,363.467 520.709,362.472 520.25,361.362C519.365,359.225 516.085,360.197 516.063,362.987C516.043,365.491 517.612,365.957 518.508,367.325C519.588,368.975 519.101,371.849 515.4,371.862C515.439,372.697 515.4,374.362 515.4,374.362C519.889,374.369 523.01,369.746 519.89,366.377" style="fill:none;stroke:black;stroke-width:1px;stroke-linecap:round;stroke-linejoin:miter;stroke-miterlimit:4;"/>
            </g>
        </g>
    </g>
</svg>
