<?xml version="1.0" encoding="UTF-8" standalone="no"?>
<!DOCTYPE svg PUBLIC "-//W3C//DTD SVG 1.1//EN" "http://www.w3.org/Graphics/SVG/1.1/DTD/svg11.dtd">
<svg width="100%" height="100%" viewBox="0 0 24 24" version="1.1" xmlns="http://www.w3.org/2000/svg" xmlns:xlink="http://www.w3.org/1999/xlink" xml:space="preserve" xmlns:serif="http://www.serif.com/" style="fill-rule:evenodd;clip-rule:evenodd;stroke-linejoin:round;stroke-miterlimit:1.41421;">
    <g transform="matrix(1,0,0,1,-24,-168)">
        <g id="r19-Fal" transform="matrix(1.38209,0,0,1.35162,-678.966,-397.046)">
            <path id="path4479" d="M520.891,432.476C522.316,432.089 523.813,429.357 523.385,426.794C523.282,426.176 513.516,427.351 513.473,426.731C513.172,422.399 510.324,425.952 511.611,427.93C511.939,428.434 520.043,427.5 520.481,428.12C520.704,428.435 521.555,430.161 520.891,432.476L520.891,432.476Z" style="fill-rule:nonzero;"/>
            <path id="path4481" d="M516.377,422.027C514.796,420.766 515.837,418.668 517.577,419.912C519.19,421.066 517.155,432.105 518.808,432.634C520.508,433.177 519.102,435.024 517.758,434.049C516.215,432.93 518.12,423.417 516.377,422.027Z" style="fill-rule:nonzero;"/>
            <path id="path4483" d="M512.81,423.353C513.655,422.961 514.267,419.85 512.021,420.859C510.017,421.759 512.031,423.714 512.81,423.353Z" style="fill-rule:nonzero;"/>
        </g>
    </g>
</svg>
