<?xml version="1.0" encoding="UTF-8" standalone="no"?>
<!DOCTYPE svg PUBLIC "-//W3C//DTD SVG 1.1//EN" "http://www.w3.org/Graphics/SVG/1.1/DTD/svg11.dtd">
<svg width="100%" height="100%" viewBox="0 0 24 24" version="1.1" xmlns="http://www.w3.org/2000/svg" xmlns:xlink="http://www.w3.org/1999/xlink" xml:space="preserve" xmlns:serif="http://www.serif.com/" style="fill-rule:evenodd;clip-rule:evenodd;stroke-linejoin:round;stroke-miterlimit:1.41421;">
    <g transform="matrix(1,0,0,1,-24,-192)">
        <g id="r20-Lem" transform="matrix(1.17773,0,0,1.1438,-636.429,-360.41)">
            <path id="path3909" d="M574.213,494.237C574.441,493.589 574.556,492.314 574.339,491.701C571.7,491.755 568.993,491.911 567.535,491.239C566.472,490.749 566.094,490.476 565.625,490.244C563.546,489.217 564.379,491.036 564.343,492.61C564.312,493.952 563.497,495.757 565.577,495.071C566.557,494.747 566.33,494.651 567.508,494.137C568.92,493.52 571.636,494.209 574.213,494.237Z" style="fill-rule:nonzero;"/>
            <path id="path3911" d="M569.966,492.13C569.989,490.889 569.681,489.319 570.967,486.311C572.436,482.872 574.11,485.797 572.709,487.429C571.089,489.317 571.767,491.048 571.661,492.012C571.483,492.641 570.535,492.374 569.966,492.13Z" style="fill-rule:nonzero;"/>
            <path id="path3911-1" d="M575.875,501.131C575.383,502.435 572.323,503.052 574.101,499.901C575.905,496.705 571.893,492.725 574.708,487.292C576.491,483.849 579.573,488.238 576.316,488.365C573.597,490.993 577.265,497.449 575.875,501.131Z" style="fill-rule:nonzero;"/>
            <path id="path3931" d="M571.164,501.188C570.618,502.395 567.462,501.909 569.58,500.2C571.016,499.041 570.235,495.771 570.02,493.634C570.29,493.534 571.564,493.185 571.573,493.616C572.019,496.197 572.535,498.162 571.164,501.188Z" style="fill-rule:nonzero;"/>
        </g>
    </g>
</svg>
