<?xml version="1.0" encoding="UTF-8" standalone="no"?>
<!DOCTYPE svg PUBLIC "-//W3C//DTD SVG 1.1//EN" "http://www.w3.org/Graphics/SVG/1.1/DTD/svg11.dtd">
<svg width="100%" height="100%" viewBox="0 0 24 24" version="1.1" xmlns="http://www.w3.org/2000/svg" xmlns:xlink="http://www.w3.org/1999/xlink" xml:space="preserve" xmlns:serif="http://www.serif.com/" style="fill-rule:evenodd;clip-rule:evenodd;stroke-linejoin:round;stroke-miterlimit:1.41421;">
    <g transform="matrix(1,0,0,1,-24,-216)">
        <g id="r21-Pul" transform="matrix(1.19336,0,0,1.16834,-592.988,-406.737)">
            <path id="path4455" d="M527.473,534.722C526.621,539.854 522.394,540.346 523.969,544.527C524.701,546.468 529.501,546.801 530.109,544.224C531.031,540.315 528.606,539.777 527.473,534.722Z" style="fill-rule:nonzero;"/>
            <path id="path4457" d="M524.308,551.648C523.336,551.598 523.019,550.054 522.976,547.447C519.398,545.063 521.003,540.925 522.253,540.043C522.803,539.655 522.552,537.781 523.028,537.118C523.385,537.783 523.4,540.214 523.052,540.742C520.551,544.533 523.393,546.25 524.388,546.722C524.234,548.262 524.153,550.077 524.308,551.648L524.308,551.648Z" style="fill-rule:nonzero;"/>
            <path id="path4457-2" d="M528.744,551.84C529.881,551.355 530.026,550.111 530.121,548.086C534.072,546.454 533.679,542.455 532.711,540.808C532.37,540.228 532.598,538.42 531.765,537.668C531.408,538.332 531.435,541.01 531.652,541.604C533.151,545.704 529.95,546.728 528.753,547.138C528.907,548.677 528.944,550.359 528.744,551.84L528.744,551.84Z" style="fill-rule:nonzero;"/>
        </g>
    </g>
</svg>
