<?xml version="1.0" encoding="UTF-8" standalone="no"?>
<!DOCTYPE svg PUBLIC "-//W3C//DTD SVG 1.1//EN" "http://www.w3.org/Graphics/SVG/1.1/DTD/svg11.dtd">
<svg width="100%" height="100%" viewBox="0 0 24 24" version="1.1" xmlns="http://www.w3.org/2000/svg" xmlns:xlink="http://www.w3.org/1999/xlink" xml:space="preserve" xmlns:serif="http://www.serif.com/" style="fill-rule:evenodd;clip-rule:evenodd;stroke-linejoin:round;stroke-miterlimit:1.41421;">
    <g transform="matrix(1,0,0,1,-24,-240)">
        <g id="r22-Um" transform="matrix(1.41052,0,0,1.38451,-721.814,-581.038)">
            <path id="path3113" d="M539.93,594.639C534.593,596.761 541.207,603.112 538.294,607.784C537.552,608.972 538.894,609.162 539.31,608.613C541.257,606.049 540.467,603.278 539.708,600.942C538.865,598.35 537.95,595.377 540.313,595.879C543.173,596.488 542.156,593.755 539.93,594.639Z" style="fill-rule:nonzero;"/>
            <path id="path3113-1" d="M531.857,597.737C532.996,599.391 534.756,601.113 535.417,601.136C536.109,601.16 537.659,600.128 538.405,599.389C538.398,599.119 538.216,598.34 538.202,597.958C537.455,598.906 535.985,599.813 535.447,599.793C534.835,599.77 533.807,598.777 533.775,597.137C533.719,594.198 530.242,595.391 531.857,597.737Z" style="fill-rule:nonzero;"/>
            <path id="path3113-1-7" d="M532.528,603.99C533.664,605.698 535.062,606.416 535.691,606.461C536.598,606.527 538.408,604.975 539.299,603.898C539.292,603.628 539.174,602.691 539.16,602.309C538.848,603.027 536.672,605.166 535.786,605.247C535.119,605.308 534.006,604.195 533.821,602.988C533.584,601.441 530.845,601.462 532.528,603.99Z" style="fill-rule:nonzero;"/>
        </g>
    </g>
</svg>
