<?xml version="1.0" encoding="UTF-8" standalone="no"?>
<!DOCTYPE svg PUBLIC "-//W3C//DTD SVG 1.1//EN" "http://www.w3.org/Graphics/SVG/1.1/DTD/svg11.dtd">
<svg width="100%" height="100%" viewBox="0 0 24 24" version="1.1" xmlns="http://www.w3.org/2000/svg" xmlns:xlink="http://www.w3.org/1999/xlink" xml:space="preserve" xmlns:serif="http://www.serif.com/" style="fill-rule:evenodd;clip-rule:evenodd;stroke-linejoin:round;stroke-miterlimit:1.41421;">
    <g transform="matrix(1,0,0,1,-48,-24)">
        <g id="r24-Ist" transform="matrix(0.992459,0,0,0.996877,-797.234,-85.2139)">
            <path id="path4149" d="M862.719,125.081C862.278,120.719 862.596,117.687 867.438,117.768C869.659,117.806 869.77,116.339 870.5,113.362C871.14,116.942 869.964,119.652 867.531,119.487C865.406,119.343 864.268,120.037 864.375,122.393C863.493,123.439 863.2,123.833 862.719,125.081Z" style="fill-rule:nonzero;"/>
            <path id="path4154" d="M862.125,111.563C859.991,111.527 855.61,117.252 855.688,121.063C855.788,126.027 862.029,124.669 863.313,131.625C863.285,128.463 863.52,125.848 864.531,124.219C866.378,121.244 869.193,125.434 871.808,118.506C867.55,124.877 864.669,117.707 862.313,125.938C859.169,123.652 858.497,121.055 862.25,118.875C856.025,119.208 859.951,114.212 862.125,111.563ZM858.698,121.072C858.653,122.732 856.941,122.335 857.044,121.005C857.159,119.513 858.73,119.911 858.698,121.072Z" style="fill-rule:nonzero;"/>
        </g>
    </g>
</svg>
