<?xml version="1.0" encoding="UTF-8" standalone="no"?>
<!DOCTYPE svg PUBLIC "-//W3C//DTD SVG 1.1//EN" "http://www.w3.org/Graphics/SVG/1.1/DTD/svg11.dtd">
<svg width="100%" height="100%" viewBox="0 0 24 24" version="1.1" xmlns="http://www.w3.org/2000/svg" xmlns:xlink="http://www.w3.org/1999/xlink" xml:space="preserve" xmlns:serif="http://www.serif.com/" style="fill-rule:evenodd;clip-rule:evenodd;stroke-linejoin:round;stroke-miterlimit:1.41421;">
    <g transform="matrix(1,0,0,1,-48,-48)">
        <g id="r25-Gul" transform="matrix(1.4524,0,0,1.48163,-1092.94,-164.011)">
            <g id="path4146" transform="matrix(1,0,0,1,-68.8831,-32.2771)">
                <path d="M857.813,176.827C860.257,177.65 861.785,179.075 862.566,180.534C864.127,183.452 865.175,187.786 869.241,189.906C863.401,189.515 863.566,180.543 857.278,178.567C855.326,177.954 856.205,176.285 857.813,176.827Z" style="fill-rule:nonzero;"/>
            </g>
            <g id="path4148" transform="matrix(1,0,0,1,-68.8831,-32.2771)">
                <path d="M856.34,190.174C855.695,189.487 860.813,185.838 863.194,184.097L863.693,184.831C861.193,186.483 856.831,190.696 856.34,190.174Z" style="fill-rule:nonzero;"/>
            </g>
            <g id="path4150" transform="matrix(1,0,0,1,-68.8831,-32.2771)">
                <path d="M859.934,189.906C860.98,188.894 862.319,187.65 863.135,187.128C863.558,187.88 864.512,189.144 865.313,189.839L859.934,189.906Z" style="fill-rule:nonzero;"/>
            </g>
        </g>
    </g>
</svg>
