<?xml version="1.0" encoding="UTF-8" standalone="no"?>
<!DOCTYPE svg PUBLIC "-//W3C//DTD SVG 1.1//EN" "http://www.w3.org/Graphics/SVG/1.1/DTD/svg11.dtd">
<svg width="100%" height="100%" viewBox="0 0 24 24" version="1.1" xmlns="http://www.w3.org/2000/svg" xmlns:xlink="http://www.w3.org/1999/xlink" xml:space="preserve" xmlns:serif="http://www.serif.com/" style="fill-rule:evenodd;clip-rule:evenodd;stroke-linejoin:round;stroke-miterlimit:1.41421;">
    <g transform="matrix(1,0,0,1,-48,-96)">
        <g id="r27-Ohm" transform="matrix(1.10618,0,0,1.12087,-808.737,-192.366)">
            <g id="path3959" transform="matrix(1,0,0,1,-68.8831,-32.2771)">
                <path d="M849.156,291.331C848.632,292.06 848.258,294.639 848.713,295.367C849.17,296.097 852.6,298.791 853.857,298.801C854.845,298.809 857.772,297.176 858.406,296.55C860.311,299.693 861.82,294.538 859,294.612C857.939,294.64 855.634,297.326 853.813,297.331C852.128,297.336 849.429,293.947 849.156,291.331Z" style="fill-rule:nonzero;"/>
            </g>
            <g id="path3959-7" transform="matrix(1,0,0,1,-68.8831,-32.2771)">
                <path d="M848.692,299.93C851.682,300.261 852.803,302.346 853.669,302.327C854.426,302.31 856.19,300.567 857.294,300.69C857.567,303.199 859.367,302.121 859.468,300.275C859.548,298.811 858.874,297.816 856.865,299.121C856.179,299.567 854.302,300.708 853.694,300.717C853.019,300.728 848.635,298.033 848.21,296.444C847.563,297.532 848.036,299.858 848.692,299.93Z" style="fill-rule:nonzero;"/>
            </g>
            <g id="path3997" transform="matrix(1,0,0,1,-68.8831,-32.2771)">
                <path d="M856.256,307.35C853.617,306.863 853.429,305.22 853.588,303.929C853.699,303.021 852.654,302.878 852.502,303.854C852.296,305.182 852.159,308.019 856.256,307.35L856.256,307.35Z" style="fill-rule:nonzero;"/>
            </g>
            <g id="path3999" transform="matrix(1,0,0,1,-68.8831,-32.2771)">
                <path d="M856.136,308.261C849.888,309.58 851.026,304.189 850.937,303.379C850.818,302.303 849.75,300.801 848.941,301.485C848.136,302.165 849.51,302.562 849.558,303.727C849.622,305.271 850.347,311.481 856.136,308.261Z" style="fill-rule:nonzero;"/>
            </g>
        </g>
    </g>
</svg>
