<?xml version="1.0" encoding="UTF-8" standalone="no"?>
<!DOCTYPE svg PUBLIC "-//W3C//DTD SVG 1.1//EN" "http://www.w3.org/Graphics/SVG/1.1/DTD/svg11.dtd">
<svg width="100%" height="100%" viewBox="0 0 24 24" version="1.1" xmlns="http://www.w3.org/2000/svg" xmlns:xlink="http://www.w3.org/1999/xlink" xml:space="preserve" xmlns:serif="http://www.serif.com/" style="fill-rule:evenodd;clip-rule:evenodd;stroke-linejoin:round;stroke-miterlimit:1.41421;">
    <g transform="matrix(1,0,0,1,-48,-120)">
        <g id="r28-Lo" transform="matrix(1.19157,0,0,1.29158,-875.622,-295.321)">
            <g id="path4037" transform="matrix(1,0,0,1,-68.8831,-32.2771)">
                <path d="M852.631,368.66C851.685,371.411 853.366,369.804 853.865,369.791C854.459,369.775 855.86,371.585 855.115,368.741C854.671,367.042 853.462,366.244 852.631,368.66Z" style="fill:rgb(6,2,2);fill-rule:nonzero;"/>
            </g>
            <g id="path4039" transform="matrix(1,0,0,1,-68.8831,-32.2771)">
                <path d="M848.72,367.973C851.385,365.667 852.709,361.133 853,357.487C853.2,354.978 854.731,354.443 855.094,357.393C855.558,361.164 858.039,369.925 859.625,368.987C860.163,368.669 861.047,367.269 861.698,367.81C862.249,368.269 861.196,371.112 859.589,370.855C857.436,370.509 855.805,366.127 855.157,362.789C854.432,362.421 853.442,362.146 852.745,362.407C852.292,366.14 849.996,368.302 848.575,370.004C846.44,372.562 845.084,368.728 845.969,367.8C847.065,366.65 848.368,367.442 848.72,367.973L848.72,367.973Z" style="fill:rgb(6,2,2);fill-rule:nonzero;"/>
            </g>
            <g id="path4059-0" transform="matrix(1,0,0,1,-68.8831,-32.2771)">
                <path d="M848.921,364.72C851.063,362.611 856.611,362.244 859.31,365.06C861.788,367.646 863.836,365.482 861.352,361.772C858.879,358.078 856.743,359.997 857.817,361.084C858.592,361.867 858.949,363.146 857.37,362.269C856.124,361.576 852.28,361.037 851.131,361.39C850.608,361.551 850.774,360.728 851.071,360.07C852.192,357.588 848.919,359.618 847.215,362.41C845.687,364.915 846.36,367.242 848.921,364.72L848.921,364.72Z" style="fill:rgb(6,2,2);fill-rule:nonzero;"/>
            </g>
        </g>
    </g>
</svg>
