<?xml version="1.0" encoding="UTF-8" standalone="no"?>
<!DOCTYPE svg PUBLIC "-//W3C//DTD SVG 1.1//EN" "http://www.w3.org/Graphics/SVG/1.1/DTD/svg11.dtd">
<svg width="100%" height="100%" viewBox="0 0 24 24" version="1.1" xmlns="http://www.w3.org/2000/svg" xmlns:xlink="http://www.w3.org/1999/xlink" xml:space="preserve" xmlns:serif="http://www.serif.com/" style="fill-rule:evenodd;clip-rule:evenodd;stroke-linejoin:round;stroke-miterlimit:1.41421;">
    <g transform="matrix(1,0,0,1,-48,-144)">
        <g id="r29-Sur" transform="matrix(1.33004,0,0,1.34266,-988.172,-371.345)">
            <g id="path3975" transform="matrix(1,0,0,1,-68.8831,-32.2771)">
                <path d="M860.991,420.96C860.139,419.974 858.439,419.368 856.66,419.502C857,421.061 857.246,423.17 857.273,425.175C857.288,426.292 856.836,429.204 856.012,430.819C855.528,431.766 854.624,431.09 855.007,430.261C855.684,428.8 855.86,427.299 855.932,425.23C856.022,422.672 855.57,420.051 854.185,417.734C856.194,417.889 858.514,417.53 861.035,417.601C861.123,418.549 861.185,419.935 860.991,420.96L860.991,420.96Z" style="fill-rule:nonzero;"/>
            </g>
            <g id="path3995" transform="matrix(1,0,0,1,-68.8831,-32.2771)">
                <path d="M855.807,421.7C855.277,422.68 854.593,423.402 853.522,424.208C853.041,423.307 852.967,422.418 853.257,420.761C852.28,420.99 851.95,420.478 852.154,419.683C850.176,419.163 849.872,421.925 852.246,422.014C852.214,422.693 851.992,425.773 853.08,425.733C854.631,425.676 855.946,423.69 856.05,423.313L855.807,421.7Z" style="fill-rule:nonzero;"/>
            </g>
            <g id="path3980" transform="matrix(1,0,0,1,-68.8831,-32.2771)">
                <path d="M855.829,431.527C857.316,431.056 857.839,423.509 860.613,423.675C862.148,423.766 861.829,425.902 862.295,426.416C862.831,427.005 863.867,427.665 863.04,428.499C862.569,428.974 861.234,427.781 861.265,426.883C861.287,426.253 861.446,425.148 860.571,425.122C858.422,425.058 858.597,432.531 856.037,432.487C855.044,432.471 854.682,431.891 855.829,431.527Z" style="fill-rule:nonzero;"/>
            </g>
        </g>
    </g>
</svg>
