<?xml version="1.0" encoding="UTF-8" standalone="no"?>
<!DOCTYPE svg PUBLIC "-//W3C//DTD SVG 1.1//EN" "http://www.w3.org/Graphics/SVG/1.1/DTD/svg11.dtd">
<svg width="100%" height="100%" viewBox="0 0 24 24" version="1.1" xmlns="http://www.w3.org/2000/svg" xmlns:xlink="http://www.w3.org/1999/xlink" xml:space="preserve" xmlns:serif="http://www.serif.com/" style="fill-rule:evenodd;clip-rule:evenodd;stroke-linejoin:round;stroke-miterlimit:1.41421;">
    <g transform="matrix(1,0,0,1,-48,-168)">
        <g id="r30-Ber" transform="matrix(0.969848,0,0,0.964952,-701.153,-260.483)">
            <g id="path3973" transform="matrix(1,0,0,1,-68.8831,-32.2771)">
                <path d="M852.774,494.663C852.334,495.699 851.223,497.817 850.874,498.315C849.948,499.638 848.723,499.183 848.704,498.038C848.637,494.049 848.433,486.451 848.625,479.721C848.665,478.308 850.758,477.632 850.625,479.721C850.274,485.228 850.306,496.142 850.371,496.305C850.41,496.401 852.008,495.194 852.774,494.663Z" style="fill-rule:nonzero;"/>
            </g>
            <g id="path3976" transform="matrix(1,0,0,1,-68.8831,-32.2771)">
                <path d="M857.031,495.206C857.955,494.831 858.232,491.416 858.049,490.113C857.991,489.701 857.814,489.56 857.555,489.539C854.877,489.32 851.995,489.259 849.656,489.331L849.844,491.175C851.893,491.083 856.342,490.965 856.429,491.12C856.559,491.352 856.78,494.372 857.031,495.206Z" style="fill-rule:nonzero;"/>
            </g>
            <g id="path3978" transform="matrix(1,0,0,1,-68.8831,-32.2771)">
                <path d="M850,487.862C852.434,487.931 854.642,487.951 857.389,487.921C857.843,487.916 857.748,487.739 857.769,487.426C857.888,485.657 858.484,483.381 858.856,481.683C857.477,482.569 856.714,484.616 856.537,486.067C856.194,486.124 855.893,486.179 855.544,486.142C855.551,484.508 855.03,482.091 853.813,482.097C852.772,482.102 852.073,484.432 852.203,485.899C851.402,485.977 850.642,486.014 849.958,485.975L850,487.862Z" style="fill-rule:nonzero;"/>
            </g>
        </g>
    </g>
</svg>
