<?xml version="1.0" encoding="UTF-8" standalone="no"?>
<!DOCTYPE svg PUBLIC "-//W3C//DTD SVG 1.1//EN" "http://www.w3.org/Graphics/SVG/1.1/DTD/svg11.dtd">
<svg width="100%" height="100%" viewBox="0 0 24 24" version="1.1" xmlns="http://www.w3.org/2000/svg" xmlns:xlink="http://www.w3.org/1999/xlink" xml:space="preserve" xmlns:serif="http://www.serif.com/" style="fill-rule:evenodd;clip-rule:evenodd;">
    <g transform="matrix(1,0,0,1,-48,-192)">
        <g id="r31-Jah" transform="matrix(1.29294,0,0,1.27506,-975.99,-454.917)">
            <g id="path4003" transform="matrix(1,0,0,1,-68.8831,-32.2771)">
                <path d="M863.336,555.621C863.792,550.92 862.967,543.226 863.249,542.689C864.237,540.808 865.765,540.85 865.57,542.176C865.509,542.591 864.887,543.328 864.842,543.78C864.728,544.92 864.803,553.175 864.711,555.611C864.645,557.357 863.175,557.286 863.336,555.621L863.336,555.621Z" style="fill-rule:nonzero;"/>
            </g>
            <g id="path4005" transform="matrix(1,0,0,1,-68.8831,-32.2771)">
                <path d="M868.205,554.653C868.197,556.146 870.592,556.205 870.628,554.699C870.667,553.09 868.214,553.005 868.205,554.653Z" style="fill:none;stroke:black;stroke-width:1px;"/>
            </g>
            <g id="path4025" transform="matrix(1,0,0,1,-68.8831,-32.2771)">
                <path d="M864.717,544.383C867.043,546.324 874.353,551.316 875.206,551.249C875.206,551.249 875.951,553.134 875.192,552.818C874.433,552.501 866.634,547.045 864.565,546.539C864.64,546.849 864.489,544.16 864.717,544.383L864.717,544.383Z" style="fill-rule:nonzero;"/>
            </g>
            <g id="path3969" transform="matrix(1,0,0,1,-68.8831,-32.2771)">
                <path d="M876.046,545.264C878.918,541.468 875.08,539.695 874.988,542.798C874.971,543.351 874.468,552.728 874.354,555.163C874.272,556.908 875.685,556.962 875.738,555.29C875.831,552.361 876.08,548.533 876.046,545.264Z" style="fill-rule:nonzero;"/>
            </g>
            <g id="path3971" transform="matrix(1,0,0,1,-68.8831,-32.2771)">
                <path d="M875.278,543.926C872.921,545.829 865.53,550.702 864.679,550.621C864.679,550.621 863.903,552.493 864.667,552.189C865.431,551.885 873.905,546.208 875.399,545.816C875.32,546.125 875.51,543.707 875.278,543.926L875.278,543.926Z" style="fill-rule:nonzero;"/>
            </g>
        </g>
    </g>
</svg>
