<?xml version="1.0" encoding="UTF-8" standalone="no"?>
<!DOCTYPE svg PUBLIC "-//W3C//DTD SVG 1.1//EN" "http://www.w3.org/Graphics/SVG/1.1/DTD/svg11.dtd">
<svg width="100%" height="100%" viewBox="0 0 24 24" version="1.1" xmlns="http://www.w3.org/2000/svg" xmlns:xlink="http://www.w3.org/1999/xlink" xml:space="preserve" xmlns:serif="http://www.serif.com/" style="fill-rule:evenodd;clip-rule:evenodd;">
    <g transform="matrix(1,0,0,1,-48,-240)">
        <g id="r33-Zod" transform="matrix(1.24372,0,0,1.20974,-922.99,-507.631)">
            <g id="path4170" transform="matrix(1,0,0,1,-68.8831,-32.2771)">
                <path d="M863.885,664.882C861.623,663.041 857.004,662.477 854.106,664.749C854.025,662.651 853.982,660.552 854.062,658.454C855.253,658.851 856.444,659.454 857.635,660.083C857.385,657.746 857.345,655.597 857.479,653.275C859.246,654.672 861.067,656.316 862.813,658.052L862.813,654.704" style="fill:none;stroke:black;stroke-width:1.1px;"/>
            </g>
            <g id="path4174" transform="matrix(1.35058,0,0,1.69681,-369.049,-497.817)">
                <path d="M858.17,667.65C858.17,667.992 857.808,668.274 857.367,668.274C856.926,668.274 856.563,667.992 856.563,667.649C856.563,667.306 856.926,667.024 857.367,667.024C857.804,667.024 858.165,667.302 858.17,667.642" style="fill-rule:nonzero;"/>
            </g>
            <g id="path4176" transform="matrix(0.854676,0,0,0.881003,55.8677,46.8135)">
                <path d="M862.635,667.828C862.635,667.828 862.635,667.828 862.635,667.829C862.635,668.465 862.111,668.989 861.474,668.989C860.837,668.989 860.313,668.465 860.313,667.829C860.313,667.192 860.837,666.668 861.474,666.668C862.105,666.668 862.627,667.183 862.634,667.814" style="fill-rule:nonzero;"/>
            </g>
            <g id="path4196" transform="matrix(1,0,0,1,-68.8831,-32.2771)">
                <path d="M863.005,651.94C865.113,651.923 864.802,654.313 863.005,654.31C861.311,654.308 861.339,651.953 863.005,651.94Z" style="fill:none;stroke:black;stroke-width:1.1px;"/>
            </g>
        </g>
    </g>
</svg>
